<svg xmlns="http://www.w3.org/2000/svg" xmlns:xlink="http://www.w3.org/1999/xlink" viewBox="0 0 513 514" fill="#fff" fill-rule="evenodd" stroke="#000" stroke-linecap="round" stroke-linejoin="round" width="300" height="300" font-family="Roboto" font-size="14px" text-anchor="middle"><defs><style type="text/css"></style></defs><use xlink:href="#A" x=".5" y=".5"></use><symbol id="A" overflow="visible"><g stroke="none" fill-rule="nonzero"><path d="M0 75A74.84 74.84 0 0 1 75 0h362a74.84 74.84 0 0 1 75 75v362a74.84 74.84 0 0 1-75 75H75a74.84 74.84 0 0 1-75-75z" fill="#cb2e62"></path><path d="M336 370.667l80 12L336 416 96 336l240 34.667V96l80 33.333v253.333zM176 149.333L206.667 156v48L256 169.333v40L205.333 236 256 262.667v40L205.333 268v48L176 322.667 122.667 276v-20l30.667-20-30.667-20v-20zM138.667 204L176 222.667V176zM176 296v-46.667L138.667 268zm80-126.667l40 13.333v106.667l-40 13.333z"></path></g></symbol></svg>