<svg xmlns="http://www.w3.org/2000/svg" xmlns:xlink="http://www.w3.org/1999/xlink" viewBox="0 0 59 65" fill="#fff" fill-rule="evenodd" stroke="#000" stroke-linecap="round" stroke-linejoin="round" width="300" height="300" font-family="Roboto" font-size="14px" text-anchor="middle"><defs><style type="text/css"></style></defs><use xlink:href="#A" x=".5" y=".5"></use><symbol id="A" overflow="visible"><path d="M26.098 57.545l-18.72-39C2.858 22.695 0 28.597 0 35.237 0 47.687 10.144 57.83 22.594 57.83c1.2 0 2.305-.092 3.504-.277m-7.653-44.54c1.383-.277 2.767-.37 4.15-.37 12.45 0 22.594 10.144 22.594 22.594a22.45 22.45 0 0 1-7.931 17.153L42.8 64c9.037-6.363 14.94-16.876 14.94-28.772C57.822 15.77 42.052 0 22.595 0c-3.32 0-6.64.46-9.683 1.383z" stroke="none" fill="#232736" fill-rule="nonzero"></path></symbol></svg>