<?xml version="1.0" standalone="no"?><!DOCTYPE svg PUBLIC "-//W3C//DTD SVG 1.1//EN" "http://www.w3.org/Graphics/SVG/1.1/DTD/svg11.dtd"><svg class="icon" height="512" viewBox="0 0 1024 1024" version="1.1" xmlns="http://www.w3.org/2000/svg"><path d="M902.32149333 646.71744001a983.80458667 983.80458667 0 0 1-376.88661333 77.05941333c-179.62325333 0-353.51210667-49.20661333-494.14144-131.01738667-12.288-7.20896-21.40842667 5.51594667-11.19573333 14.69098667 130.36202667 117.69173333 302.55786667 188.416 493.81376 188.416 136.47872 0 294.96661333-42.92608 404.24789333-123.64458667 18.24085333-13.32565333 2.62144-33.36874667-15.83786667-25.50442666" fill="#050505" /><path d="M1010.34666667 584.67669334c-11.90570667-14.69098667-114.41493333-27.41589333-176.9472 16.60245333-9.66656 6.71744-7.97354667 16.00170667 2.67605333 14.80021334 35.28021333-4.20522667 113.65034667-13.59872 127.63136 4.25984 14.03562667 17.91317333-15.51018667 91.69578667-28.61738667 124.57301333-4.04138667 9.99424 4.53290667 14.03562667 13.54410667 6.49898667 58.60010667-49.04277333 73.78261333-151.87968 61.71306667-166.73450667" fill="#050505" /><path d="M158.81557333 508.54570667c-23.15605333 0-41.83381333-6.60821333-55.92405333-19.87925333-14.14485333-13.27104-21.13536-30.69269333-21.13536-52.31957333 0-22.88298667 6.33514667-41.17845333 19.11466667-54.8864 12.72490667-13.70794667 31.29344-22.33685333 55.7056-25.88672l43.52682666-5.95285334a97.21173333 97.21173333 0 0 0 28.23509334-7.91893333 15.67402667 15.67402667 0 0 0 7.48202666-8.30122667 22.50069333 22.50069333 0 0 0-8.84736-28.78122666c-7.53664-4.75136-18.35008-7.09973333-32.44032-7.09973334-12.61568 0-22.39146667 3.05834667-29.4912 9.17504s-10.81344 14.85482667-11.30496 26.05056H90.43968c1.36533333-29.32736 11.35957333-51.22730667 29.92810667-65.86368 18.56853333-14.58176 45.76597333-21.84533333 81.75616-21.84533333 31.1296 0 55.76021333 6.5536 73.78261333 19.71541333 18.07701333 13.16181333 27.08821333 31.02037333 27.08821333 53.73952v140.0832c0 11.25034667 0.87381333 19.11466667 2.73066667 23.64757334s5.57056 8.08277333 11.03189333 10.70421333v9.17504H245.37770667v-0.21845333a161.3824 161.3824 0 0 1-5.78901334-29.65504l-0.16384-0.43690667c-20.75306667 24.52138667-47.62282667 36.75477333-80.60928 36.75477333z m79.40778667-98.90474666V380.85973334c-7.64586667 4.31445333-17.80394667 7.75509333-30.36501333 10.32192l-24.41216 4.58752c-11.52341333 2.18453333-20.26154667 6.11669333-26.26901334 11.85109333a29.27274667 29.27274667 0 0 0-8.95658666 21.79072c0 9.99424 2.67605333 17.85856 8.08277333 23.48373334 5.35210667 5.67978667 12.83413333 8.46506667 22.55530667 8.46506666 21.18997333 0 38.06549333-7.42741333 50.62656-22.28224a35.44405333 35.44405333 0 0 0 6.17130666-12.88874666c1.74762667-5.67978667 2.56682667-11.19573333 2.56682667-16.54784zM407.63392 502.15594667L334.88896 251.75381334h70.01429333l39.97696 183.88309333h0.27306667l37.24629333-183.88309333h66.08213334l37.02784 184.32 40.63232-184.32H692.71552l-72.47189333 250.40213333H552.79616l-38.5024-186.44992h0.10922667l-39.43082667 186.44992H407.63392zM869.33504 326.73792001a27.36128 27.36128 0 0 0-12.01493333-23.26528c-7.97354667-5.78901333-18.56853333-8.73813333-31.78496-8.73813334-12.72490667 0-22.66453333 2.23914667-29.81888 6.5536a20.48 20.48 0 0 0-10.70421334 18.29546667c0 5.57056 4.096 10.26730667 12.17877334 14.30869333 7.97354667 3.82293333 22.22762667 8.02816 42.65301333 12.67029334 40.46848 9.06581333 67.55669333 18.95082667 81.21002667 29.65504 13.70794667 10.75882667 20.58922667 27.63434667 20.58922666 50.62656 0 24.52138667-9.99424 44.34602667-29.87349333 59.20085333-19.82464 15.01866667-46.03904 22.44608-78.53397333 22.44608-38.61162667 0-68.26666667-7.3728-88.96512-22.06378667-20.86229333-14.7456-31.9488-36.20864-33.25952-64.49834666h67.1744a32.54954667 32.54954667 0 0 0 15.23712 27.08821333c9.77578667 6.49898667 22.99221333 9.77578667 39.81312 9.77578667 13.16181333 0 23.48373333-2.23914667 30.91114666-6.77205334a21.18997333 21.18997333 0 0 0 11.14112-19.00544c0-5.67978667-3.60448-10.54037333-10.81344-14.52714666-7.20896-3.76832-19.82464-7.64586667-37.90165333-11.63264-42.37994667-9.50272-70.72426667-19.55157333-84.97834667-30.14656-14.30869333-10.43114667-21.40842667-26.59669333-21.40842666-48.55125334 0-24.84906667 9.22965333-44.94677333 27.74357333-60.23850666 18.45930667-15.23712 42.81685333-22.88298667 73.07264-22.88298667 34.07872 0 61.49461333 7.48202667 82.35690667 22.44608 20.91690667 14.96405333 31.29344 34.73408 31.29344 59.25546667h-65.31754667z" fill="#231815" /></svg>