<svg xmlns="http://www.w3.org/2000/svg" xmlns:xlink="http://www.w3.org/1999/xlink" viewBox="0 0 105 46" fill="#fff" fill-rule="evenodd" stroke="#000" stroke-linecap="round" stroke-linejoin="round" width="300" height="300" font-family="Roboto" font-size="14px" text-anchor="middle"><defs><style type="text/css"></style></defs><use xlink:href="#A" x=".5" y=".5"></use><symbol id="A" overflow="visible"><g stroke="none"><path d="M39.94 23.928l1.365-1.705 3.453-3.656h2.74l-4.57 4.878L47.8 29.93h-2.82l-3.645-4.982L40 26.043v3.892h-2.38v-16h2.395v7.805l-.126 2.192zm9.553-8.348c-.023-.367.106-.728.356-.998a1.39 1.39 0 0 1 1.014-.345c.364-.022.72.102.992.345a1.34 1.34 0 0 1 .35.998 1.31 1.31 0 0 1-.351.97c-.267.25-.626.38-.992.356-.373.026-.74-.103-1.014-.356a1.31 1.31 0 0 1-.356-.97zm2.56 14.377H49.64v-11.4h2.412zm9.262-11.597c1.28-.05 2.508.523 3.3 1.54q1.2 1.546 1.2 4.33c0 1.864-.4 3.3-1.206 4.352-.833.982-2.056 1.548-3.343 1.548a4.4 4.4 0 0 1-3.343-1.548h-.164l-.444 1.343h-1.8v-16h2.428v3.837l-.044 1.25-.06 1.058h.104c.75-1.137 2.044-1.792 3.404-1.72zm-.63 1.973c-.8-.075-1.583.247-2.1.86-.428.548-.652 1.53-.663 2.872v.164q0 2.072.658 3.004c.5.656 1.32 1.007 2.15.932a2.19 2.19 0 0 0 1.946-1.019 5.37 5.37 0 0 0 .663-2.938q0-3.875-2.653-3.875zM75.72 29.94l-.482-1.58h-.082a4.63 4.63 0 0 1-1.644 1.409c-.678.275-1.406.404-2.138.378-.957.057-1.897-.268-2.614-.904a3.4 3.4 0 0 1-.943-2.56 3.01 3.01 0 0 1 1.31-2.653q1.3-.893 3.974-.976l1.962-.06v-.608c.048-.592-.132-1.18-.504-1.644a2.07 2.07 0 0 0-1.579-.548 5.51 5.51 0 0 0-1.677.252 14.07 14.07 0 0 0-1.551.625l-.784-1.727c.642-.33 1.323-.577 2.028-.734a9.14 9.14 0 0 1 2.077-.252q2.16 0 3.3.948 1.13.948 1.096 2.965v7.673zm-3.596-1.644a2.97 2.97 0 0 0 2.11-.734c.554-.538.846-1.3.8-2.06v-.987l-1.463.066a4.94 4.94 0 0 0-2.477.548 1.73 1.73 0 0 0-.778 1.557 1.53 1.53 0 0 0 .449 1.173 1.95 1.95 0 0 0 1.387.438zM90.82 29.94h-2.428v-7a3.07 3.07 0 0 0-.548-1.962 2.05 2.05 0 0 0-1.683-.647 2.68 2.68 0 0 0-2.242.904q-.707.904-.707 3.03v5.662h-2.417v-11.36h1.9l.34 1.485h.126a3.33 3.33 0 0 1 1.458-1.25 4.86 4.86 0 0 1 2.094-.444q4.094 0 4.094 4.16zm10.47 0l-.482-1.58h-.082a4.63 4.63 0 0 1-1.644 1.409c-.678.275-1.406.404-2.138.378a3.61 3.61 0 0 1-2.614-.904 3.4 3.4 0 0 1-.943-2.56 3.01 3.01 0 0 1 1.31-2.653q1.3-.893 3.974-.976l1.962-.06v-.608c.048-.592-.132-1.18-.504-1.644a2.07 2.07 0 0 0-1.579-.548 5.51 5.51 0 0 0-1.677.252 14.07 14.07 0 0 0-1.551.625l-.784-1.727c.642-.33 1.323-.577 2.028-.734a9.21 9.21 0 0 1 2.077-.252q2.16 0 3.3.948 1.13.948 1.096 2.965v7.673zm-3.596-1.644a2.97 2.97 0 0 0 2.11-.734c.554-.538.846-1.3.8-2.06v-.987l-1.463.066a4.94 4.94 0 0 0-2.477.548 1.73 1.73 0 0 0-.778 1.557 1.53 1.53 0 0 0 .449 1.173 1.94 1.94 0 0 0 1.359.438z" fill="#000" fill-rule="nonzero"></path><path d="M0 16.54v23.128l16.44-18.933C11.4 17.972 5.746 16.54 0 16.54z" fill="#343741"></path><path d="M0 0v16.54c5.745 0 11.398 1.442 16.44 4.194L34.438 0z" fill="#f04e98"></path><path d="M19.974 22.942L1.633 44.08H33.75c-1.752-8.535-6.675-16.088-13.775-21.137z" fill="#00bfb3"></path></g></symbol></svg>